<svg xmlns="http://www.w3.org/2000/svg" xmlns:xlink="http://www.w3.org/1999/xlink" id="Layer_1" x="0px" y="0px" viewBox="0 0 243.8 29.6" style="enable-background:new 0 0 243.8 29.6;" xml:space="preserve"><style type="text/css">	.st0{fill:#FFFFFF;}	.st1{fill:#C07238;}</style><g id="Layer_2_00000179613335279106377940000016580803113087816334_">	<g id="Layer_1-2">		<polygon class="st0" points="61.3,6.5 53.7,6.5 53.7,0 76.6,0 76.6,6.5 69,6.5 69,28.8 61.3,28.8   "></polygon>		<path class="st1" d="M82.2,27.1l-1.1,2.5h-7.5l14-29.4c0.1-0.3,0.4-0.3,0.5,0l14,29.4h-8L93,27.1l-2.5-5.8l-3-6.7l-2.9,6.7   L82.2,27.1z"></path>		<path class="st1" d="M36.8,27.1l-1,2.5h-7.6l14-29.4c0.2-0.3,0.4-0.3,0.6,0l14,29.4h-8l-1.1-2.5l-2.6-5.8l-2.9-6.7l-2.9,6.7   L36.8,27.1z"></path>		<polygon class="st0" points="104.8,0 112.5,0 112.5,22.4 124.8,22.4 124.8,28.8 104.8,28.8   "></polygon>		<path class="st0" d="M126.3,14.8c0-8.7,7.1-14.8,15.5-14.8s15.4,6.1,15.4,14.8s-7.1,14.8-15.4,14.8S126.3,23.5,126.3,14.8    M149.4,14.8c0-4.6-2.8-8.1-7.6-8.1s-7.6,3.5-7.6,8.1s2.7,8.1,7.6,8.1S149.4,19.3,149.4,14.8"></path>		<path class="st0" d="M176,19.5v-6h13.7v1.3c0,9.8-5.6,14.8-14.2,14.8c-8.1,0.2-14.8-6.3-15-14.4c0-0.1,0-0.3,0-0.4   c-0.1-8.1,6.3-14.7,14.4-14.8c0.2,0,0.3,0,0.5,0c5.6,0,10,2.5,12.2,6.5l-6.1,3.7c-1.2-2.3-3.6-3.6-6.2-3.5c-4.6,0-6.9,3.5-6.9,8.1   s2.4,8.1,7.2,8.1s5.1-1.3,6-3.4L176,19.5z"></path>		<path class="st0" d="M193.5,17.7V0h7.7v17.6c0,3.3,1.5,5.1,4.8,5.1s4.8-1.8,4.8-5.1V0h7.7v17.7c0,7.8-5.3,11.6-12.5,11.6   S193.5,25.5,193.5,17.7"></path>		<path class="st0" d="M220.9,24.3l5.6-4.2c1.4,2,3.6,3.1,6,3.1c2.3,0,3.7-0.7,3.7-2.3s-1-1.8-2.9-2.4l-3.4-1.2   c-4.2-1.4-7.1-3.9-7.1-8.7s4.7-8.6,9.8-8.6s7.9,1.8,9.6,3.8l-4.4,4.6c-1.2-1.3-3-2.1-4.8-2c-1.8,0-2.8,0.8-2.8,2s0.7,1.6,2.1,2.1   l3.8,1.3c5.8,1.9,7.7,4.6,7.7,8.7s-3.3,9.1-10.9,9.1S222.7,26.6,220.9,24.3"></path>		<path class="st0" d="M15,29.6C6.9,29.8,0.2,23.3,0,15.2c0-0.1,0-0.3,0-0.4C-0.1,6.7,6.3,0.1,14.4,0c0.1,0,0.1,0,0.2,0   c6.2,0,10,2.6,12.5,6.2l-5.8,3.9c-1.4-2.3-3.9-3.6-6.6-3.4c-4.2,0-6.8,3.5-6.8,8.1s2.7,8.1,7.1,8.1c2.9,0.2,5.6-1.4,6.8-4l5.9,3.8   C24.9,27.5,20.9,29.6,15,29.6"></path>	</g></g></svg>