<svg xmlns="http://www.w3.org/2000/svg" viewBox="0 0 243.8 29.6"><defs><style>.cls-1{fill:#fff;}</style></defs><g id="Layer_2" data-name="Layer 2"><g id="Layer_1-2" data-name="Layer 1"><polygon class="cls-1" points="61.3 6.5 53.7 6.5 53.7 0 76.6 0 76.6 6.5 69 6.5 69 28.8 61.3 28.8 61.3 6.5"></polygon><path class="cls-1" d="M82.2,27.1l-1.1,2.5H73.6L87.6.2c.1-.3.4-.3.5,0l14,29.4h-8L93,27.1l-2.5-5.8-3-6.7-2.9,6.7Z"></path><path class="cls-1" d="M36.8,27.1l-1,2.5H28.2L42.2.2q.3-.5.6,0l14,29.4h-8l-1.1-2.5-2.6-5.8-2.9-6.7-2.9,6.7Z"></path><polygon class="cls-1" points="104.8 0 112.5 0 112.5 22.4 124.8 22.4 124.8 28.8 104.8 28.8 104.8 0"></polygon><path class="cls-1" d="M126.3,14.8c0-8.7,7.1-14.8,15.5-14.8s15.4,6.1,15.4,14.8-7.1,14.8-15.4,14.8-15.5-6.1-15.5-14.8m23.1,0c0-4.6-2.8-8.1-7.6-8.1s-7.6,3.5-7.6,8.1,2.7,8.1,7.6,8.1,7.6-3.6,7.6-8.1"></path><path class="cls-1" d="M176,19.5v-6h13.7v1.3c0,9.8-5.6,14.8-14.2,14.8a14.7,14.7,0,0,1-15-14.8A14.6,14.6,0,0,1,175.4,0c5.6,0,10,2.5,12.2,6.5l-6.1,3.7a6.7,6.7,0,0,0-6.2-3.5c-4.6,0-6.9,3.5-6.9,8.1s2.4,8.1,7.2,8.1,5.1-1.3,6-3.4Z"></path><path class="cls-1" d="M193.5,17.7V0h7.7V17.6c0,3.3,1.5,5.1,4.8,5.1s4.8-1.8,4.8-5.1V0h7.7V17.7c0,7.8-5.3,11.6-12.5,11.6s-12.5-3.8-12.5-11.6"></path><path class="cls-1" d="M220.9,24.3l5.6-4.2a7.3,7.3,0,0,0,6,3.1c2.3,0,3.7-.7,3.7-2.3s-1-1.8-2.9-2.4l-3.4-1.2c-4.2-1.4-7.1-3.9-7.1-8.7S227.5,0,232.6,0s7.9,1.8,9.6,3.8l-4.4,4.6a6.1,6.1,0,0,0-4.8-2c-1.8,0-2.8.8-2.8,2s.7,1.6,2.1,2.1l3.8,1.3c5.8,1.9,7.7,4.6,7.7,8.7s-3.3,9.1-10.9,9.1-10.2-3-12-5.3"></path><path class="cls-1" d="M15,29.6A14.7,14.7,0,0,1,0,14.8,14.6,14.6,0,0,1,14.6,0c6.2,0,10,2.6,12.5,6.2l-5.8,3.9a7.3,7.3,0,0,0-6.6-3.4c-4.2,0-6.8,3.5-6.8,8.1s2.7,8.1,7.1,8.1a7,7,0,0,0,6.8-4l5.9,3.8c-2.8,4.8-6.8,6.9-12.7,6.9"></path></g></g></svg>