<svg xmlns="http://www.w3.org/2000/svg" preserveAspectRatio="xMidYMid meet" data-bbox="32 30.03 543.86 66.06" viewBox="32 30.03 543.86 66.06" data-type="color" aria-hidden="true" aria-labelledby="svgcid--aazg8l-102cm9"><title id="svgcid--aazg8l-102cm9"></title><g><path d="M168.72 44.51h-17.03V30.04h51.29v14.48h-17.03v49.87h-17.22V44.51z" fill="#292929" data-color="1"></path><path d="m215.27 90.53-2.37 5.49h-16.84l31.32-65.48c.28-.66.85-.66 1.14 0l31.23 65.48h-17.79l-2.46-5.49-5.68-12.87-6.62-14.96-6.43 14.95-5.5 12.88z" fill="#c07238" data-color="2"></path><path d="m114.12 90.53-2.37 5.49H94.91l31.32-65.48c.28-.66.85-.66 1.14 0l31.23 65.48h-17.8l-2.46-5.49-5.68-12.87-6.62-14.95-6.43 14.95-5.49 12.87z" fill="#c07238" data-color="2"></path><path d="M265.71 30.04h17.22V79.9h27.35v14.48h-44.57V30.04z" fill="#292929" data-color="1"></path><path d="M313.69 62.97c0-19.4 15.99-32.93 34.54-32.93s34.54 13.53 34.54 32.93-15.99 33.02-34.54 33.02-34.54-13.63-34.54-33.02zm51.47 0c0-10.13-6.15-17.98-16.94-17.98-10.79 0-16.94 7.85-16.94 17.98 0 10.12 6.15 18.07 16.94 18.07 10.79 0 16.94-7.95 16.94-18.07z" fill="#292929" data-color="1"></path><path d="M424.7 73.47V60.22h30.37c0 .38.1 1.42.1 2.75 0 21.95-12.59 33.12-31.61 33.12-18.26 0-33.59-13.72-33.59-33.12s15.14-32.93 33.31-32.93c12.39 0 22.24 5.49 27.25 14.48l-13.72 8.33c-2.46-4.35-6.62-7.85-13.82-7.85-10.22 0-15.42 7.85-15.42 17.98 0 10.12 5.49 18.17 16.09 18.17 7.85 0 11.45-2.84 13.44-7.66h-12.4z" fill="#292929" data-color="1"></path><path d="M463.63 69.49V30.04h17.22V69.3c0 7.29 3.41 11.45 10.69 11.45 7.29 0 10.69-4.16 10.69-11.45V30.04h17.22V69.5c0 17.32-11.83 25.83-27.91 25.83s-27.91-8.52-27.91-25.84z" fill="#292929" data-color="1"></path><path d="m524.76 84.16 12.49-9.37c3.12 3.88 7 7 13.44 7 5.11 0 8.14-1.51 8.14-5.11 0-2.74-2.08-4.07-6.34-5.49l-7.57-2.55c-9.37-3.12-15.99-8.8-15.99-19.4 0-12.68 10.5-19.21 21.95-19.21 11.36 0 17.6 4.07 21.39 8.52l-9.84 10.31c-2.65-2.74-5.49-4.64-10.6-4.64-4.16 0-6.25 1.89-6.25 4.45 0 2.46 1.42 3.69 4.54 4.73l8.52 2.84c12.87 4.26 17.22 10.41 17.22 19.49 0 11.83-7.38 20.34-24.41 20.34-14.48.01-22.72-6.61-26.69-11.91z" fill="#292929" data-color="1"></path><path d="M65.49 95.99C47.42 95.99 32 82.36 32 62.97c0-19.4 15.33-32.93 32.55-32.93 13.91 0 22.43 5.87 27.82 13.82l-12.96 8.8C76.95 48.88 72.98 45 64.84 45c-9.46 0-15.23 7.85-15.23 17.98 0 10.12 5.96 18.07 15.8 18.07 8.33 0 12.4-3.78 15.14-8.89l13.25 8.52c-6.35 10.67-15.25 15.31-28.31 15.31z" fill="#292929" data-color="1"></path></g></svg>